<?xml version="1.0" encoding="utf-8"?>
<!-- Generator: Adobe Illustrator 24.0.2, SVG Export Plug-In . SVG Version: 6.00 Build 0)  -->
<svg version="1.1" id="Layer_1" xmlns:svgjs="http://svgjs.com/svgjs"
	 xmlns="http://www.w3.org/2000/svg" xmlns:xlink="http://www.w3.org/1999/xlink" x="0px" y="0px" viewBox="0 0 512 512"
	 style="enable-background:new 0 0 512 512;" xml:space="preserve">
<style type="text/css">
	.st0{fill:#FFFFFF;}
	.st1{opacity:0.11;fill:#38393A;enable-background:new    ;}
	.st2{fill:#00A2FF;}
	.st3{fill:#38393A;}
</style>
<g>
	<g>
		<path class="st0" d="M175.7,511.6c141.9-8.7,155.6-192.4,216.8-286.6c30.3-46.7,101.8-94.8,89.2-149.8
			c-14.2-62-108-80.1-180.2-74.1C122.8,15.8,45.5,142.1,33.8,261.9C26.6,335.7,3.8,522.1,175.7,511.6L175.7,511.6z"/>
		<path class="st1" d="M414.5,131.9h-37v-12c0-5.5-4.5-10-10-10h-12c-5.5,0-10,4.5-10,10v12h-46v-12c0-5.5-4.5-10-10-10h-12
			c-5.5,0-10,4.5-10,10v12h-46v-12c0-5.5-4.5-10-10-10h-12c-5.5,0-10,4.5-10,10v12h-46v-12c0-5.5-4.5-10-10-10h-12
			c-5.5,0-10,4.5-10,10v12h-37c-11,0-20,9-20,20v266c0,11,9,20,20,20h340c11,0,20-9,20-20V152C434.5,140.9,425.5,131.9,414.5,131.9z
			"/>
		<g>
			<path class="st0" d="M432.5,419.9h-340c-11,0-20-9-20-20v-266c0-11,9-20,20-20h340c11,0,20,9,20,20v266
				C452.5,411,443.5,419.9,432.5,419.9z"/>
			<path class="st0" d="M390.5,361.9h-254c-2.8,0-5-2.2-5-5v-119c0-2.8,2.2-5,5-5h254c2.8,0,5,2.2,5,5v119
				C395.5,359.7,393.3,361.9,390.5,361.9z"/>
			<path class="st0" d="M452.5,178.9v-45c0-11-9-20-20-20h-340c-11,0-20,9-20,20v45H452.5z"/>
			<path class="st0" d="M151.5,142.9h-12c-5.5,0-10-4.5-10-10v-31c0-5.5,4.5-10,10-10h12c5.5,0,10,4.5,10,10v31
				C161.5,138.5,157,142.9,151.5,142.9z"/>
			<path class="st0" d="M229.5,142.9h-12c-5.5,0-10-4.5-10-10v-31c0-5.5,4.5-10,10-10h12c5.5,0,10,4.5,10,10v31
				C239.5,138.5,235,142.9,229.5,142.9z"/>
			<path class="st0" d="M307.4,142.9h-11.9c-5.5,0-10-4.5-10-10v-31c0-5.5,4.5-10,10-10h12c5.5,0,10,4.5,10,10v31
				C317.5,138.5,313,142.9,307.4,142.9z"/>
			<path class="st0" d="M385.5,142.9h-12c-5.5,0-10-4.5-10-10v-31c0-5.5,4.5-10,10-10h12c5.5,0,10,4.5,10,10v31
				C395.5,138.5,391,142.9,385.5,142.9z"/>
		</g>
		<path class="st2" d="M145.5,255.9h-28c-5.5,0-10-4.5-10-10v-28c0-5.5,4.5-10,10-10h28c5.5,0,10,4.5,10,10v28
			C155.5,251.5,151,255.9,145.5,255.9z"/>
		<path class="st2" d="M211.5,255.9h-28c-5.5,0-10-4.5-10-10v-28c0-5.5,4.5-10,10-10h28c5.5,0,10,4.5,10,10v28
			C221.5,251.5,217,255.9,211.5,255.9z"/>
		<path class="st2" d="M276.5,255.9h-28c-5.5,0-10-4.5-10-10v-28c0-5.5,4.5-10,10-10h28c5.5,0,10,4.5,10,10v28
			C286.5,251.5,282,255.9,276.5,255.9z"/>
		<path class="st2" d="M341.5,255.9h-28c-5.5,0-10-4.5-10-10v-28c0-5.5,4.5-10,10-10h28c5.5,0,10,4.5,10,10v28
			C351.5,251.5,347,255.9,341.5,255.9z"/>
		<path class="st2" d="M407.5,255.9h-28c-5.5,0-10-4.5-10-10v-28c0-5.5,4.5-10,10-10h28c5.5,0,10,4.5,10,10v28
			C417.5,251.4,413,255.9,407.5,255.9z"/>
		<g>
			<path class="st3" d="M145.5,260.9h-28c-8.3,0-15-6.7-15-15v-28c0-8.3,6.7-15,15-15h28c8.3,0,15,6.7,15,15v28
				C160.5,254.2,153.8,260.9,145.5,260.9z M117.5,212.9c-2.8,0-5,2.2-5,5v28c0,2.8,2.2,5,5,5h28c2.8,0,5-2.2,5-5v-28
				c0-2.8-2.2-5-5-5H117.5z"/>
		</g>
		<g>
			<path class="st3" d="M211.5,260.9h-28c-8.3,0-15-6.7-15-15v-28c0-8.3,6.7-15,15-15h28c8.3,0,15,6.7,15,15v28
				C226.5,254.2,219.8,260.9,211.5,260.9z M183.5,212.9c-2.8,0-5,2.2-5,5v28c0,2.8,2.2,5,5,5h28c2.8,0,5-2.2,5-5v-28
				c0-2.8-2.2-5-5-5H183.5z"/>
		</g>
		<g>
			<path class="st3" d="M276.5,260.9h-28c-8.3,0-15-6.7-15-15v-28c0-8.3,6.7-15,15-15h28c8.3,0,15,6.7,15,15v28
				C291.5,254.2,284.8,260.9,276.5,260.9z M248.5,212.9c-2.8,0-5,2.2-5,5v28c0,2.8,2.2,5,5,5h28c2.8,0,5-2.2,5-5v-28
				c0-2.8-2.2-5-5-5H248.5z"/>
		</g>
		<g>
			<path class="st3" d="M341.5,260.9h-28c-8.3,0-15-6.7-15-15v-28c0-8.3,6.7-15,15-15h28c8.3,0,15,6.7,15,15v28
				C356.5,254.2,349.8,260.9,341.5,260.9z M313.5,212.9c-2.8,0-5,2.2-5,5v28c0,2.8,2.2,5,5,5h28c2.8,0,5-2.2,5-5v-28
				c0-2.8-2.2-5-5-5H313.5z"/>
		</g>
		<g>
			<path class="st3" d="M407.5,260.9h-28c-8.3,0-15-6.7-15-15v-28c0-8.3,6.7-15,15-15h28c8.3,0,15,6.7,15,15v28
				C422.5,254.2,415.8,260.9,407.5,260.9z M379.5,212.9c-2.8,0-5,2.2-5,5v28c0,2.8,2.2,5,5,5h28c2.8,0,5-2.3,5-5v-28
				c0-2.8-2.2-5-5-5H379.5z"/>
		</g>
		<g>
			<path class="st2" d="M145.5,320.9h-28c-5.5,0-10-4.5-10-10v-28c0-5.5,4.5-10,10-10h28c5.5,0,10,4.5,10,10v28
				C155.5,316.5,151,320.9,145.5,320.9z"/>
			<path class="st2" d="M211.5,320.9h-28c-5.5,0-10-4.5-10-10v-28c0-5.5,4.5-10,10-10h28c5.5,0,10,4.5,10,10v28
				C221.5,316.5,217,320.9,211.5,320.9z"/>
			<path class="st2" d="M276.5,320.9h-28c-5.5,0-10-4.5-10-10v-28c0-5.5,4.5-10,10-10h28c5.5,0,10,4.5,10,10v28
				C286.5,316.5,282,320.9,276.5,320.9z"/>
			<path class="st2" d="M341.5,320.9h-28c-5.5,0-10-4.5-10-10v-28c0-5.5,4.5-10,10-10h28c5.5,0,10,4.5,10,10v28
				C351.5,316.5,347,320.9,341.5,320.9z"/>
			<path class="st2" d="M407.5,320.9h-28c-5.5,0-10-4.5-10-10v-28c0-5.5,4.5-10,10-10h28c5.5,0,10,4.5,10,10v28
				C417.5,316.4,413,320.9,407.5,320.9z"/>
			<path class="st2" d="M145.5,385.9h-28c-5.5,0-10-4.5-10-10v-28c0-5.5,4.5-10,10-10h28c5.5,0,10,4.5,10,10v28
				C155.5,381.4,151,385.9,145.5,385.9z"/>
			<path class="st2" d="M211.5,385.9h-28c-5.5,0-10-4.5-10-10v-28c0-5.5,4.5-10,10-10h28c5.5,0,10,4.5,10,10v28
				C221.5,381.4,217,385.9,211.5,385.9z"/>
			<path class="st2" d="M276.5,385.9h-28c-5.5,0-10-4.5-10-10v-28c0-5.5,4.5-10,10-10h28c5.5,0,10,4.5,10,10v28
				C286.5,381.4,282,385.9,276.5,385.9z"/>
			<path class="st2" d="M341.5,385.9h-28c-5.5,0-10-4.5-10-10v-28c0-5.5,4.5-10,10-10h28c5.5,0,10,4.5,10,10v28
				C351.5,381.4,347,385.9,341.5,385.9z"/>
		</g>
		<path class="st0" d="M379.6,495.4c-3.7,0-7.5-1.4-10.3-4.3c-5.7-5.7-5.7-15,0-20.7c5.7-5.7,15-5.7,20.7,0c5.7,5.7,5.7,15,0,20.6
			C387.1,493.9,383.4,495.4,379.6,495.4L379.6,495.4z M379.6,476.2c-1.2,0-2.4,0.4-3.3,1.3c-1.8,1.8-1.8,4.7,0,6.5
			c1.8,1.8,4.7,1.8,6.5,0c1.8-1.8,1.8-4.7,0-6.5C382,476.6,380.8,476.2,379.6,476.2L379.6,476.2z"/>
		<path class="st2" d="M209.3,71c-3.9,0-7.6-1.5-10.3-4.3c-5.7-5.7-5.7-15,0-20.7c5.7-5.7,15-5.7,20.7,0c5.7,5.7,5.7,15,0,20.7
			C216.9,69.5,213.2,71,209.3,71z M209.3,51.8c-1.2,0-2.4,0.4-3.3,1.3c-1.8,1.8-1.8,4.7,0,6.5c0.9,0.9,2,1.3,3.3,1.3
			s2.4-0.5,3.3-1.3c1.8-1.8,1.8-4.7,0-6.5C211.7,52.2,210.5,51.8,209.3,51.8z"/>
		<path class="st2" d="M258.6,27.9h-3.1v-3.1c0-2.4-1.6-4.6-4-5.1c-3.2-0.6-6,1.8-6,4.9v3.3h-3.1c-2.4,0-4.6,1.6-5.1,4
			c-0.6,3.2,1.8,6,4.9,6h3.3V41c0,2.4,1.6,4.6,4,5.1c3.2,0.6,6-1.8,6-4.9v-3.3h3.2c3.1,0,5.5-2.8,4.9-6
			C263.2,29.5,261,27.9,258.6,27.9z"/>
		<path class="st0" d="M341.6,444.9h-3.1v-3.1c0-2.4-1.6-4.6-4-5.1c-3.2-0.6-6,1.8-6,4.9v3.3h-3.1c-2.4,0-4.6,1.6-5.1,4
			c-0.6,3.2,1.8,6,4.9,6h3.3v3.1c0,2.4,1.6,4.6,4,5.1c3.2,0.6,6-1.8,6-4.9v-3.3h3.3c3.1,0,5.5-2.8,4.9-6
			C346.2,446.5,344,444.9,341.6,444.9z"/>
		<path class="st2" d="M122.6,444.9h-3.1v-3.1c0-2.4-1.6-4.6-4-5.1c-3.2-0.6-6,1.8-6,4.9v3.3h-3.1c-2.4,0-4.6,1.6-5.1,4
			c-0.6,3.2,1.8,6,4.9,6h3.3v3.1c0,2.4,1.6,4.6,4,5.1c3.2,0.6,6-1.8,6-4.9v-3.3h3.3c3.1,0,5.5-2.8,4.9-6
			C127.2,446.5,125,444.9,122.6,444.9z"/>
		<path class="st3" d="M432.5,108.9h-32v-7c0-8.3-6.7-15-15-15h-16c-6.1,0-11,4.9-11,11v11h-36v-11c0-6.1-4.9-11-11-11h-20
			c-6.1,0-11,4.9-11,11v11h-36v-11c0-6.1-4.9-11-11-11h-20c-6.1,0-11,4.9-11,11v11h-36v-11c0-6.1-4.9-11-11-11h-17.8
			c-7.3,0-13.2,5.9-13.2,13.2v8.8h-35c-12.2,0-22,9.8-22,22v271.8c0,12.3,9.9,22.2,22.2,22.2h73.1c0.3,0,0.6-0.1,0.8-0.3
			c4.6-4.4,1.5-9.7-2.7-9.7H92.5c-8.3,0-15-6.7-15-15v-216h370v134.7c0,2.4,1.6,4.6,4,5.1c3.2,0.6,6-1.8,6-4.9V133.9
			C457.5,120.1,446.3,108.9,432.5,108.9L432.5,108.9z M373.5,96.9h12c2.8,0,5,2.2,5,5v31c0,2.8-2.2,5-5,5h-12c-2.8,0-5-2.2-5-5v-31
			C368.5,99.2,370.7,96.9,373.5,96.9z M295.5,96.9h12c2.8,0,5,2.2,5,5v31c0,2.8-2.2,5-5,5h-12c-2.8,0-5-2.2-5-5v-31
			C290.5,99.2,292.7,96.9,295.5,96.9z M217.5,96.9h12c2.8,0,5,2.2,5,5v31c0,2.8-2.2,5-5,5h-12c-2.8,0-5-2.2-5-5v-31
			C212.5,99.2,214.7,96.9,217.5,96.9z M139.5,96.9h12c2.8,0,5,2.2,5,5v31c0,2.8-2.2,5-5,5h-12c-2.8,0-5-2.2-5-5v-31
			C134.5,99.2,136.7,96.9,139.5,96.9z M77.5,173.9v-40c0-8.3,6.7-15,15-15h32v14c0,8.3,6.7,15,15,15h12c8.3,0,15-6.7,15-15v-14h36
			v14c0,8.3,6.7,15,15,15h12c8.3,0,15-6.7,15-15v-14h36v14c0,8.3,6.7,15,15,15h12c8.3,0,15-6.7,15-15v-14h36v14c0,8.3,6.7,15,15,15
			h12c8.3,0,15-6.7,15-15v-14h32c8.3,0,15,6.7,15,15v40H77.5z"/>
		<path class="st3" d="M447.5,345.3v52.8c0,9.3-7.5,16.8-16.8,16.8H186.9c-0.3,0-0.6,0.1-0.8,0.3c-4.6,4.4-1.5,9.7,2.7,9.7h244.9
			c13.1,0,23.7-10.6,23.7-23.7v-53.9c0-4.3-5.3-7.3-9.7-2.7C447.6,344.7,447.5,345,447.5,345.3L447.5,345.3z"/>
	</g>
</g>
</svg>
